<svg xmlns="http://www.w3.org/2000/svg" viewBox="0 0 64 64"><g id="_30-map" data-name="30-map"><path d="M6,51a5.01,5.01,0,0,0-4,2,4.941,4.941,0,0,0-1,3V10A5,5,0,0,1,6,5H9V51Z" style="fill:#edf4fa"/><path d="M63,10V56a4.941,4.941,0,0,0-1-3,5.01,5.01,0,0,0-4-2H55V5h3A5,5,0,0,1,63,10Z" style="fill:#edf4fa"/><path d="M62,53a4.941,4.941,0,0,1,1,3,5,5,0,0,1-5,5H6a5,5,0,0,1-5-5,4.941,4.941,0,0,1,1-3c0,4,4,4,4,4H58s3.3,0,3.9-3A4.4,4.4,0,0,0,62,53Z" style="fill:#c1cfe8"/><path d="M17.53,19H9V15h8.01a2.81,2.81,0,0,0-.01.29A12.687,12.687,0,0,0,17.53,19Z" style="fill:#c1cfe8"/><path d="M55,15v4H46.47A12.687,12.687,0,0,0,47,15.29a2.81,2.81,0,0,0-.01-.29Z" style="fill:#c1cfe8"/><path d="M26.5,44a2.5,2.5,0,1,1,0,5H9V40H19a2.006,2.006,0,0,1,2,2,2.015,2.015,0,0,0,2,2Z" style="fill:#01a84e"/><path d="M11.59,31.59A1.955,1.955,0,0,0,11,33a2.006,2.006,0,0,1-2,2V26h7.5a2.5,2.5,0,0,1,0,5H13A1.955,1.955,0,0,0,11.59,31.59Z" style="fill:#01a84e"/><path d="M55,29v9H42.5a2.5,2.5,0,0,1,0-5H46a2.015,2.015,0,0,0,2-2,2.006,2.006,0,0,1,2-2Z" style="fill:#01a84e"/><path d="M55,51h3a5.01,5.01,0,0,1,4,2,4.4,4.4,0,0,1-.1,1H53a2.015,2.015,0,0,1-2-2,2.006,2.006,0,0,0-2-2H45.5a2.5,2.5,0,0,1,0-5H55Z" style="fill:#01a84e"/><path d="M58,57H6s-4,0-4-4a5.01,5.01,0,0,1,4-2H9V49H26.5a2.5,2.5,0,0,0,0-5H23a2.015,2.015,0,0,1-2-2,2.006,2.006,0,0,0-2-2H9V35a2.006,2.006,0,0,0,2-2,2.015,2.015,0,0,1,2-2h3.5a2.5,2.5,0,1,0,0-5H9V19h8.53c2.13,7.17,9.97,10.31,9.97,17.71a4.505,4.505,0,0,0,9,0c0-7.4,7.84-10.54,9.97-17.71H55V29H50a2.006,2.006,0,0,0-2,2,2.015,2.015,0,0,1-2,2H42.5a2.5,2.5,0,1,0,0,5H55v7H45.5a2.5,2.5,0,1,0,0,5H49a2.006,2.006,0,0,1,2,2,2.015,2.015,0,0,0,2,2h8.9C61.3,57,58,57,58,57Z" style="fill:#4989f4"/><circle cx="32" cy="16" r="7" style="fill:#96272e"/><path d="M46.99,15a2.81,2.81,0,0,1,.01.29A12.687,12.687,0,0,1,46.47,19c-2.13,7.17-9.97,10.31-9.97,17.71a4.505,4.505,0,0,1-9,0c0-7.4-7.84-10.54-9.97-17.71A12.687,12.687,0,0,1,17,15.29a2.81,2.81,0,0,1,.01-.29C17.16,7.24,23.82,1,32,1S46.84,7.24,46.99,15ZM39,16a7,7,0,1,0-7,7A6.995,6.995,0,0,0,39,16Z" style="fill:#e63b47"/><path d="M17.282,26.136c.541.714,1.11,1.4,1.689,2.075a2.414,2.414,0,0,0-1.689-2.075Z" style="fill:#017336"/><path d="M14,17.29A13.606,13.606,0,0,0,14.112,19H17.53A12.687,12.687,0,0,1,17,15.29a2.81,2.81,0,0,1,.01-.29h-2.8a13.607,13.607,0,0,0-.2,2A2.81,2.81,0,0,0,14,17.29Z" style="fill:#8394b2"/><path d="M27.5,36.71c0-7.4-7.84-10.54-9.97-17.71H14.112a12.142,12.142,0,0,0,.418,2,16.021,16.021,0,0,0,2.752,5.136,2.414,2.414,0,0,1,1.689,2.075c2.715,3.158,5.529,6.065,5.529,10.5A4.4,4.4,0,0,0,29,43a4.523,4.523,0,0,0,3.84-2.081A4.727,4.727,0,0,1,32,41,4.4,4.4,0,0,1,27.5,36.71Z" style="fill:#335fab"/><path d="M32,8a8,8,0,1,0,8,8A7.994,7.994,0,0,0,32,8Zm0,15a7,7,0,1,1,7-7A6.995,6.995,0,0,1,32,23Z" style="fill:#b32e37"/><path d="M62,53a3.744,3.744,0,0,1-1.115,2.879,6.809,6.809,0,0,1,1.592,2.306A4.927,4.927,0,0,0,62,53Z" style="fill:#8394b2"/><rect x="51" y="15" width="4" height="4" style="fill:#8394b2"/><path d="M51,52v2h2a2.015,2.015,0,0,1-2-2Z" style="fill:#335fab"/><polygon points="55 38 51 38 51 43 51 45 55 45 55 38" style="fill:#335fab"/><rect x="51" y="19" width="4" height="10" style="fill:#335fab"/><path d="M61.9,54H56.2a6.774,6.774,0,0,1,4.685,1.879,3.5,3.5,0,0,0,1.038-2.02C61.914,53.905,61.91,53.955,61.9,54Z" style="fill:#335fab"/><rect x="51" y="29" width="4" height="9" style="fill:#017336"/><path d="M61.923,53.859A5.051,5.051,0,0,0,62,53a5.01,5.01,0,0,0-4-2H55V45H51v7a2.015,2.015,0,0,0,2,2h8.9C61.91,53.955,61.914,53.905,61.923,53.859Z" style="fill:#017336"/><path d="M2,53a3.744,3.744,0,0,0,1.115,2.879,6.809,6.809,0,0,0-1.592,2.306A4.927,4.927,0,0,1,2,53Z" style="fill:#8394b2"/><rect x="9" y="19" width="4" height="7" style="fill:#335fab"/><path d="M9,51H6a5.01,5.01,0,0,0-4,2,3.744,3.744,0,0,0,1.115,2.879A6.774,6.774,0,0,1,7.8,54H13V49H9Z" style="fill:#335fab"/><path d="M13,31a2.015,2.015,0,0,0-2,2,2.006,2.006,0,0,1-2,2v5h4Z" style="fill:#335fab"/><polygon points="13 43 13 40 9 40 9 49 13 49 13 47 13 43" style="fill:#017336"/><path d="M11,33a2.015,2.015,0,0,1,2-2V26H9v9A2.006,2.006,0,0,0,11,33Z" style="fill:#017336"/><rect x="9" y="15" width="4" height="4" style="fill:#8394b2"/><path d="M60,48a2,2,0,0,1-2-2V5H55V51h3a5.01,5.01,0,0,1,4,2,4.941,4.941,0,0,1,1,3V51A3,3,0,0,0,60,48Z" style="fill:#d6e0eb"/><path d="M4,48a2,2,0,0,0,2-2V5H9V51H6a5.01,5.01,0,0,0-4,2,4.941,4.941,0,0,0-1,3V51A3,3,0,0,1,4,48Z" style="fill:#d6e0eb"/></g></svg>